<?xml version="1.0" encoding="utf-8"?>
<!-- Generator: Adobe Illustrator 26.4.1, SVG Export Plug-In . SVG Version: 6.00 Build 0)  -->
<svg version="1.1" xmlns="http://www.w3.org/2000/svg" xmlns:xlink="http://www.w3.org/1999/xlink" x="0px" y="0px"
	 viewBox="0 0 1078 428" style="enable-background:new 0 0 1078 428;" xml:space="preserve">
<style type="text/css">
	.st0{display:none;}
	.st1{display:inline;fill:#700E0E;stroke:#000000;stroke-miterlimit:10;}
	.st2{opacity:0.1;clip-path:url(#SVGID_00000062169514469880585530000017179625040404607167_);}
	.st3{fill:none;stroke:#FFFFFF;stroke-miterlimit:10;}
</style>
<g id="Layer_2" class="st0">
	<rect y="-450" class="st1" width="1078" height="878"/>
</g>
<g id="Layer_1">
	<g>
		<defs>
			<rect id="SVGID_1_" y="-143" width="1078" height="571"/>
		</defs>
		<clipPath id="SVGID_00000005955658572158195190000006802625011374247871_">
			<use xlink:href="#SVGID_1_"  style="overflow:visible;"/>
		</clipPath>
		
			<g id="Group_348" transform="translate(0.001 -0.056)" style="opacity:0.1;clip-path:url(#SVGID_00000005955658572158195190000006802625011374247871_);">
			<g id="Group_347" transform="translate(-66.836 408.897)">
				<g id="Group_346">
					<path id="Path_391" class="st3" d="M94-92.8c83.7-34.4,187.3-24,275.4,3.8S536-17.6,620.9,15.7s182.3,56.4,274.2,38.9
						c77-14.6,141-56.1,193.3-102.4c52.2-46.4,95.4-98.7,148.6-144.3c30.6-26.3,73.6-52.2,117.6-42.2"/>
					<path id="Path_392" class="st3" d="M1356.4-235.7c-34.6-8.7-69.6,4.7-98.2,23.3c-7.4,4.8-14.4,9.8-21,15.1
						c-18.3,14.5-35.5,30-52.3,45.8c-33.8,31.9-65.7,65.1-101.5,95.8c-30.9,26.6-65.5,51.6-104.4,70.9c-28.2,14-58.6,25-91.4,31.3
						c-64.5,12.3-131.8,5.4-195.3-12.3c-27.6-7.6-54.5-17.4-80.2-27.9c-36.8-15-72.4-31.7-108.7-47.4c-45.1-19.4-90.4-37-137.6-50
						c-2.4-0.7-5-1.4-7.5-2.1C270.4-116.4,169-122,88.4-84.9"/>
					<path id="Path_393" class="st3" d="M1358-237.2c-34.5-9.4-69.7,2.6-99.2,20.2c-7.6,4.6-14.9,9.5-21.7,14.4
						c-19,13.9-36.8,29-54.2,44.4c-35.1,31.2-68,63.9-104.6,94.4c-31.6,26.4-66.8,51.4-105.9,70.7c-28.5,14-59.2,25.1-92.1,31.4
						C815.1,50.9,747.1,44.4,683.6,26c-27.7-8-54.5-18-80.2-29C566.6-18.6,531-35.8,494.2-51c-45.9-18.8-91.8-34-139-44.8
						c-2.4-0.6-5-1.1-7.5-1.7C259.6-116,160.4-116.8,82.9-77.1"/>
					<path id="Path_394" class="st3" d="M1359.6-238.7c-34.2-10.2-70,0.6-100.2,17.1c-7.9,4.3-15.4,8.8-22.4,13.7
						c-19.7,13.4-38.2,28-56.2,43c-36.2,30.4-70.4,62.8-107.8,93.1c-32.3,26.1-68,51-107.5,70.3c-28.7,14-59.8,25.1-92.9,31.5
						c-65.7,12.8-134.2,6.7-197.9-12.2C646.9,9.7,620.4-1,594.6-12.3C558-28.5,522.2-46.1,484.8-60.7
						c-46.6-18.2-93.3-31.2-140.6-39.4c-2.4-0.5-5-0.9-7.5-1.3c-88.1-14.4-185.1-10.4-259.3,32.1"/>
					<path id="Path_395" class="st3" d="M1361.2-240.2c-34.1-10.8-70.3-1.4-101.2,13.9c-8,4-15.8,8.4-23.1,12.9
						c-20.3,12.7-39.5,26.9-58.1,41.7c-37.5,29.7-72.6,61.8-110.8,91.8c-33.1,26-69.1,50.7-109.2,70.1c-29,14-60.4,25.1-93.7,31.7
						c-66.3,13-135.4,7.4-199.2-12.2C638,1.2,611.4-9.9,585.9-21.5c-36.7-16.8-72.4-34.8-110.5-49c-44.2-16.4-92.2-27.9-142.2-34
						c-2.4-0.3-5-0.6-7.5-0.9c-87.8-9.9-182.5-1-253.8,44"/>
					<path id="Path_396" class="st3" d="M1362.7-241.6c-33.8-11.6-70.6-3.4-102.2,10.8c-8.3,3.8-16.3,7.9-23.9,12.2
						c-21,12.1-40.8,25.9-60.1,40.3c-38.7,29-74.9,60.6-114,90.4c-33.8,25.8-70.4,50.5-110.8,69.8C922.6-4,890.9,7,857.4,13.8
						C790.5,27,720.8,21.9,656.7,1.6c-27.9-8.8-54.2-20.3-79.8-32.4c-36.7-17.4-72.4-35.9-111.1-49.4c-48-16.9-96.3-25.2-143.6-28.8
						c-2.4-0.2-5-0.3-7.5-0.5C227-115,134.5-101.3,66.4-53.6"/>
					<path id="Path_397" class="st3" d="M1364.3-243.1c-33.6-12.3-70.7-5.5-103.2,7.8c-8.5,3.6-16.7,7.4-24.6,11.5
						c-21.7,11.4-42.3,24.9-61.9,38.9c-40,28.3-77.2,59.6-117.1,89.2c-34.5,25.6-71.6,50.1-112.4,69.4c-29.5,14-61.4,25.2-95.2,32
						c-67.3,13.5-137.8,8.8-201.9-12.2c-27.9-9.1-54.2-21.1-79.8-33.7c-36.7-17.9-72.4-36.9-111.7-50
						c-48.7-16.2-97.9-22.4-145.2-23.4c-2.4-0.1-5-0.1-7.5-0.1c-87.8-1-178.1,17.5-243.1,67.9"/>
					<path id="Path_398" class="st3" d="M1366-244.6c-33.3-13.1-71-7.5-104.2,4.7c-8.8,3.2-17.2,6.8-25.3,10.7
						c-22.3,10.8-43.6,23.9-64,37.6c-41.3,27.6-79.5,58.5-120.2,87.8c-35.2,25.3-72.9,49.8-114.1,69.2c-29.7,13.9-61.9,25.2-96,32.1
						c-67.8,13.7-139,9.5-203.2-12.2c-27.9-9.4-54.2-21.9-79.6-34.8c-36.5-18.5-72.4-37.9-112.3-50.5
						c-49.4-15.5-99.3-19.4-146.6-18.2c-2.4,0.1-5,0.1-7.5,0.2c-87.8,3.5-175.9,26.8-237.7,79.9"/>
					<path id="Path_399" class="st3" d="M1367.6-246.1c-33.2-13.8-71.3-9.6-105.2,1.6c-8.9,3-17.6,6.3-25.9,10
						c-23,10.3-44.8,22.8-65.8,36.2c-42.4,26.9-81.8,57.4-123.3,86.4c-35.9,25.2-74,49.6-115.7,68.9c-30.2,14-62.8,25.3-97,32.3
						C766.2,3.3,694.5-0.5,630.1-22.9c-28-9.7-54-22.6-79.5-36c-36.5-19.2-72.4-38.9-113-50.9c-50.2-14.8-100.9-16.4-148.2-12.8
						c-2.4,0.2-5,0.5-7.5,0.7C194.3-114.1,108.5-86,49.9-30.2"/>
					<path id="Path_400" class="st3" d="M1369.2-247.6c-32.9-14.6-71.6-11.6-106.2-1.5c-9.2,2.7-18.1,5.8-26.6,9.4
						c-23.7,9.6-46.1,21.8-67.8,34.8c-43.7,26.3-84.1,56.3-126.5,85.2c-36.7,25-75.2,49.2-117.3,68.6
						c-30.3,13.9-63.1,25.2-97.5,32.3C758.3-4.6,686-7.9,621.4-31c-28-10-54-23.4-79.5-37.1c-36.5-19.8-72.4-40-113.5-51.5
						c-50.9-14.3-102.3-13.6-149.8-7.5c-2.4,0.3-5,0.7-7.5,1C183.4-113.8,99.9-80.9,44.3-22.4"/>
					<path id="Path_401" class="st3" d="M1370.8-249.1c-32.8-15.3-71.9-13.7-107.2-4.6c-9.4,2.5-18.5,5.3-27.3,8.6
						c-24.3,9-47.6,20.8-69.7,33.5c-44.8,25.6-86.4,55.3-129.5,83.8c-37.4,24.8-76.5,48.9-119,68.3c-30.5,13.9-63.7,25.3-98.3,32.5
						c-69.6,14.4-142.4,11.5-207.3-12.2c-28-10.3-53.9-24.2-79.3-38.3c-36.5-20.3-72.4-41-114.1-52c-51.6-13.6-103.9-10.6-151.2-2.2
						c-2.6,0.5-5,0.9-7.5,1.4c-87.7,16.8-169,54.5-221.5,115.7"/>
					<path id="Path_402" class="st3" d="M1372.4-250.6c-32.5-16-72.2-15.9-108.2-7.6c-9.6,2.2-19,4.8-28,7.9
						c-25,8.4-48.9,19.8-71.7,32.1c-46.1,24.9-88.7,54.1-132.7,82.4c-38.1,24.5-77.6,48.6-120.6,68.1c-30.8,13.9-64.2,25.3-99,32.7
						c-70,14.6-143.7,12.3-208.6-12.1c-28.2-10.6-53.9-25-79.2-39.5c-36.5-20.9-72.4-42-114.7-52.5c-52.3-12.9-105.4-7.8-152.8,3.1
						c-2.6,0.6-5,1.1-7.5,1.8C161.7-113.1,82.6-70.6,33.2-6.8"/>
					<path id="Path_403" class="st3" d="M1373.9-252c-32.3-16.8-72.4-17.9-109.2-10.7c-9.8,1.9-19.4,4.4-28.7,7.2
						c-25.6,7.9-50.2,18.7-73.6,30.7c-47.4,24.2-91,53-135.8,81.2c-38.8,24.3-78.9,48.3-122.2,67.7c-31,13.9-64.7,25.3-99.8,32.8
						c-70.6,14.8-144.9,13-210-12.1c-28.2-10.8-53.9-25.7-79.2-40.6c-36.4-21.5-72.4-43-115.3-53c-52.9-12.3-106.8-4.8-154.2,8.4
						c-2.6,0.7-5,1.4-7.5,2.2C150.9-112.7,74-65.5,27.7,1"/>
					<path id="Path_404" class="st3" d="M1375.5-253.5c-32-17.5-72.7-20-110.2-13.8c-10.1,1.6-19.9,3.8-29.5,6.4
						c-26.3,7.2-51.5,17.7-75.6,29.3c-48.6,23.5-93.3,52-139,79.8c-39.5,24.2-80.1,48-123.9,67.5C866-70.4,832.1-58.8,796.7-51.4
						c-71.1,15.1-146,13.7-211.3-12.1c-28.2-11.2-53.8-26.5-79.1-41.8c-36.4-22-72.4-44.1-116-53.6c-53.6-11.6-108.4-1.8-155.8,13.7
						c-2.6,0.8-5,1.7-7.5,2.5C140-112.4,65.4-60.3,22.3,8.9"/>
					<path id="Path_405" class="st3" d="M1377.1-255c-31.9-18.3-73-22-111.2-16.9c-10.3,1.4-20.4,3.3-30.2,5.7
						c-26.9,6.6-52.9,16.7-77.5,27.9c-49.9,22.8-95.6,50.8-142,78.4c-40.2,24-81.2,47.7-125.5,67.1c-31.5,13.9-65.8,25.5-101.3,33
						c-71.7,15.3-147.2,14.4-212.6-12.1c-28.3-11.4-53.8-27.3-78.9-42.9c-36.4-22.6-72.4-45.1-116.6-54c-54.3-11-109.8,1-157.4,19.1
						c-2.6,0.9-5,1.9-7.5,3C129.1-112.1,56.8-55.2,16.7,16.6"/>
					<path id="Path_406" class="st3" d="M1378.7-256.5c-31.6-19-73.3-24.1-112.3-20c-10.5,1.1-20.7,2.8-30.8,5
						c-27.6,6.1-54.2,15.5-79.5,26.5c-51,22.2-97.9,49.8-145.2,77.2c-41,23.7-82.5,47.4-127.1,66.9c-31.8,13.9-66.4,25.5-102.1,33.1
						C709.6-52.2,633.4-52.7,568-79.9c-28.3-11.8-53.6-28-78.8-44.1c-36.4-23.3-72.4-46.1-117.1-54.6c-55-10.4-111.4,4-158.8,24.3
						c-2.6,1-5,2.2-7.5,3.3C118.3-111.7,48.2-50.1,11.2,24.5"/>
					<path id="Path_407" class="st3" d="M1380.4-258c-31.5-19.8-73.4-26.1-113.3-23.1c-10.7,0.8-21.2,2.3-31.5,4.2
						c-28.3,5.4-55.5,14.5-81.5,25.1c-52.3,21.4-100.2,48.6-148.3,75.8c-41.7,23.5-83.7,47-128.8,66.6C845-95.5,810.1-83.8,774.1-76
						c-72.9,15.8-149.6,15.8-215.3-12.1c-28.3-12-53.6-28.8-78.8-45.2c-36.2-23.9-72.4-47.2-117.7-55
						c-55.8-9.7-112.8,6.9-160.4,29.7c-2.6,1.3-5,2.4-7.5,3.7C107.4-111.4,39.5-44.9,5.6,32.3"/>
					<path id="Path_408" class="st3" d="M1382-259.5c-31.2-20.4-73.7-28.3-114.3-26.1c-40.5,2.1-79.3,13.2-115.6,27.3
						c-100,38.7-184,98.8-281.9,140.8c-97.9,41.9-222.1,63.9-320.2,21.4c-69.6-30.1-119.3-89.5-197.1-102
						c-56.5-9-114.4,9.8-162,34.9C100.2-115.1,31.6-42.2,0,40"/>
				</g>
			</g>
		</g>
	</g>
</g>
</svg>
