<svg xmlns="http://www.w3.org/2000/svg" width="383.956" height="512" viewBox="0 0 383.956 512">
  <path id="baby-changing-facilities" d="M192,160a80,80,0,1,0-80-80A79.978,79.978,0,0,0,192,160ZM138.6,408.8l25.6-32-61.5-51.2L56.8,383a40.075,40.075,0,0,0-.8,49l48,64a40,40,0,1,0,64-48Zm142.7-83.2-61.5,51.2,25.6,32L216,448a40,40,0,0,0,64,48l48-64a40.075,40.075,0,0,0-.8-49l-45.9-57.4ZM376.7,145a40.048,40.048,0,0,0-55.7-9.8l-40.6,28.5c-52.7,37-124.2,37-176.8,0L63,135.3a39.979,39.979,0,1,0-46,65.4l40.6,28.5A237.278,237.278,0,0,0,112,257.1V288H272V257.2a237.278,237.278,0,0,0,54.4-27.9L367,200.8a40.073,40.073,0,0,0,9.7-55.8Z" transform="translate(-0.036)" fill="#115eac"/>
</svg>
