<svg version="1.1" id="Layer_1" xmlns="http://www.w3.org/2000/svg" xmlns:xlink="http://www.w3.org/1999/xlink" x="0px" y="0px"
	 viewBox="0 0 928 666" enable-background="new 0 0 928 666" xml:space="preserve">
<g>
	<path fill="#004b97" d="M713.34,30.33c1.95-8.53,9.18-15.65,17.8199-17.22c9.06-1.93,18.65,2.38,23.6801,10.05
		c16.27,23.08,32.52,46.16,48.78,69.24c3.87,5.24,5.53,12.03,4.24,18.44c-1.76,9.14-9.7,16.7-18.89,18.06
		c-3.6299,0.4-7.28-0.01-10.8199-0.74c-21.14,19.57-42.91,38.45-64.19,57.86c9.79,33.63,19.28,67.34,29.0099,100.99
		c2.48,7.87,4.03,16.12,3.42,24.4c-36.8,0.3-73.61-0.02-110.42,0.16c-1.9399-0.1-5.11,0.48-5.2-2.34
		c-8.48-30.1-17.28-60.11-25.74-90.22c-4.5601-16.5-0.8101-34.86,9.48-48.48c6.53-8.12,13.95-15.45,21.89-22.18
		c24.42-21.89,48.85-43.76,73.27-65.64c6.39-5.69,12.55-11.67,19.61-16.54c-4.28-6.2-8.84-12.22-12.94-18.55
		C713.01,42.57,712.04,36.2,713.34,30.33z"/>
	<path fill="#004b97" d="M498.61,170.71c13.38-2.26,27.52,4.7,34.37,16.32c6.36,10.48,6.37,24.46,0.02,34.96c-2.08,3.49-4.88,6.45-7.67,9.37
		c-27.36,29.3-54.71,58.6-82.07,87.89c-4.25,4.62-8.74,9.04-12.68,13.94c37.16,0.31,74.32,0.1,111.48,0.1
		c0.44,44.56,0.06,89.14,0.19,133.71c-0.05,24.12,0.1,48.25-0.07,72.37c-49.73,0.25-99.45,0.04-149.18,0.11
		c-11.99-0.11-24.1,0.53-35.97-1.56c-33.32-5.48-63.13-28.65-76.47-59.7c-10.17-0.54-20.36-0.15-30.53-0.22
		c-4.94,9.95-10.64,19.6-18.27,27.75c-15.5,17.13-36.93,28.78-59.76,32.36c-16.38,2.55-33.41,1.35-49.13-3.97
		c-20.27-6.68-38.26-19.97-50.76-37.24c-13.17-18.07-20.18-40.52-19.5-62.88c0.37-25.46,10.85-50.6,28.57-68.86
		c14.82-15.63,34.73-26.29,55.92-30.08c21.04-3.74,43.27-0.99,62.57,8.26c30.44,14.2,52.99,44.21,57.64,77.53
		c5.17,0.16,10.34,0.14,15.51,0.02c4.25-29.06,21.74-55.81,46.63-71.39c2.46-1.48,4.87-3.09,6.84-5.2
		c50.21-53.79,100.44-107.55,150.63-161.36C482.44,176.51,490.14,171.85,498.61,170.71z"/>
	<path fill="#004b97" d="M583.87,339.02c77.28,0.04,154.56-0.13,231.84,0.08c0,0,10.9567,64.9-30.07,120.51c-22.04,29.11-53.02,50.74-86.8,64.14
		c-20.77,8.3-42.73,13.42-64.9301,15.87c-6.93,1.03-13.94,0.58-20.91,0.66c-9.72-0.05-19.43,0.11-29.14-0.08
		C583.78,473.14,583.76,406.08,583.87,339.02 M629.77,380.2c-0.38,9.59-0.06,19.2-0.16,28.8c0.09,28.35-0.18,56.71,0.13,85.07
		c18.45-2.01,36.66-6.45,53.85-13.47c25.83-10.55,49.67-27.09,66.45-49.6c10.83-14.81,18.72-32.32,20.04-50.78
		C723.31,380.2,676.54,380.24,629.77,380.2z"/>
	<path fill="#004b97" d="M45.36,576.39c5.11-1.33,10.43-0.8,15.64-0.88c269.66,0.01,539.33,0.01,808.99,0c13.09-0.19,25.26,9.88,27.75,22.68
		c2.31,10.62-2.22,22.19-10.94,28.6c-5.07,3.85-11.47,5.75-17.81,5.68c-272.33-0.04-544.65,0.02-816.97-0.03
		c-14.31,0.08-27.14-12.14-28.01-26.36C22.79,592.75,32.35,579.49,45.36,576.39z"/>
</g>
</svg>