<svg xmlns="http://www.w3.org/2000/svg" width="32.889" height="24.667" viewBox="0 0 32.889 24.667">
  <path id="faci4" d="M18.5,68.274V67.083h1.028a1.027,1.027,0,0,0,1.028-1.028V65.028A1.027,1.027,0,0,0,19.528,64H13.361a1.027,1.027,0,0,0-1.028,1.028v1.028a1.027,1.027,0,0,0,1.028,1.028h1.028v1.191A14.38,14.38,0,0,0,2.056,82.5H30.833A14.38,14.38,0,0,0,18.5,68.274ZM31.861,84.555H1.028A1.027,1.027,0,0,0,0,85.583v2.056a1.027,1.027,0,0,0,1.028,1.028H31.861a1.027,1.027,0,0,0,1.028-1.028V85.583A1.027,1.027,0,0,0,31.861,84.555Z" transform="translate(0 -64)" fill="#115eac"/>
</svg>
