<svg xmlns="http://www.w3.org/2000/svg" width="26.326" height="40.504" viewBox="0 0 26.326 40.504">
  <path id="faci1" d="M13.282,12.727a4.859,4.859,0,0,0,2.132-.481,5.446,5.446,0,0,0,1.736-1.33,6.32,6.32,0,0,0,1.168-1.979,7.134,7.134,0,0,0,0-4.866,6.479,6.479,0,0,0-1.168-2A5.6,5.6,0,0,0,15.414.706,4.92,4.92,0,0,0,13.282.185a4.853,4.853,0,0,0-2.139.464A5.433,5.433,0,0,0,9.393,1.972,6.31,6.31,0,0,0,8.21,3.957a7.133,7.133,0,0,0,0,4.9,6.469,6.469,0,0,0,1.182,2.008,5.584,5.584,0,0,0,1.751,1.357A4.913,4.913,0,0,0,13.282,12.727ZM9.612,32.26l1.762-2.526-4.24-4L3.953,30.271a3.3,3.3,0,0,0-.449.918,3.582,3.582,0,0,0-.028,2.02,3.3,3.3,0,0,0,.422.929l3.326,5.006a2.979,2.979,0,0,0,.458.539,2.683,2.683,0,0,0,.538.387,2.511,2.511,0,0,0,.592.231,2.422,2.422,0,0,0,1.05.027,2.508,2.508,0,0,0,.425-.123A2.615,2.615,0,0,0,10.7,40a2.778,2.778,0,0,0,.387-.282,3.066,3.066,0,0,0,.727-.938,3.476,3.476,0,0,0,.344-1.141,3.59,3.59,0,0,0-.054-1.2,3.326,3.326,0,0,0-.468-1.122Zm9.767-6.575-4.193,4.024L16.934,32.2l-2.008,3.086a3.4,3.4,0,0,0-.466,1.13,3.6,3.6,0,0,0-.053,1.2,3.4,3.4,0,0,0,.343,1.13,2.943,2.943,0,0,0,.723.917,2.679,2.679,0,0,0,.383.271,2.49,2.49,0,0,0,.406.19,2.4,2.4,0,0,0,.85.143,2.437,2.437,0,0,0,.617-.089,2.535,2.535,0,0,0,.586-.246,2.716,2.716,0,0,0,.529-.4,3.015,3.015,0,0,0,.447-.547l3.256-5.027a3.346,3.346,0,0,0,.411-.924,3.582,3.582,0,0,0,.128-1,3.532,3.532,0,0,0-.155-.992,3.222,3.222,0,0,0-.438-.9l-3.114-4.459Zm6.456-14.058a2.921,2.921,0,0,0-.776-.855,2.515,2.515,0,0,0-.966-.432,2.365,2.365,0,0,0-1.036.015,2.528,2.528,0,0,0-.985.486l-2.755,2.207a9.832,9.832,0,0,1-2.893,1.613,9.39,9.39,0,0,1-3.145.532,9.472,9.472,0,0,1-3.158-.556A10.058,10.058,0,0,1,7.2,12.986L4.383,10.732a2.637,2.637,0,0,0-1.011-.51,2.463,2.463,0,0,0-1.066-.03,2.585,2.585,0,0,0-1,.425,2.94,2.94,0,0,0-.8.856,3.362,3.362,0,0,0-.445,1.149,3.582,3.582,0,0,0-.02,1.212,3.451,3.451,0,0,0,.382,1.133,3.046,3.046,0,0,0,.76.913l2.825,2.257q.443.353.9.663t.932.583q.473.273.957.51t.976.444V22.77l10.97-.019V20.346q.485-.2.96-.44t.939-.5q.463-.269.912-.576t.881-.653l2.743-2.212a2.971,2.971,0,0,0,.737-.9,3.407,3.407,0,0,0,.368-1.113,3.585,3.585,0,0,0-.021-1.191,3.39,3.39,0,0,0-.43-1.133Z" fill="#115eac"/>
</svg>
