<svg xmlns="http://www.w3.org/2000/svg" width="36.66" height="25.662" viewBox="0 0 36.66 25.662">
  <path id="FREE_WIFI" data-name="FREE WIFI" d="M36.369,39.039a26.633,26.633,0,0,0-36.077,0,.91.91,0,0,0-.02,1.316L2.234,42.3a.93.93,0,0,0,1.283.022,21.977,21.977,0,0,1,29.629,0,.931.931,0,0,0,1.283-.022l1.961-1.946a.911.911,0,0,0-.021-1.316ZM18.331,50.33a3.666,3.666,0,1,0,2.6,1.074A3.666,3.666,0,0,0,18.331,50.33ZM29.94,45.542a17.585,17.585,0,0,0-23.218,0,.9.9,0,0,0-.033,1.326l1.973,1.947a.935.935,0,0,0,1.263.046,12.9,12.9,0,0,1,16.811,0A.934.934,0,0,0,28,48.815l1.973-1.947a.9.9,0,0,0-.033-1.326Z" transform="translate(0 -32)" fill="#115eac"/>
</svg>
