<svg xmlns="http://www.w3.org/2000/svg" width="28" height="37.333" viewBox="0 0 28 37.333">
  <path id="HIGH_CHAIRS" data-name="HIGH CHAIRS" d="M8.75,5.25A5.25,5.25,0,1,1,14,10.5,5.25,5.25,0,0,1,8.75,5.25Zm18.566.1a2.333,2.333,0,0,0-3.3,0L17.7,11.666H10.3L3.983,5.35a2.333,2.333,0,0,0-3.3,3.3l6.9,6.9V35a2.333,2.333,0,0,0,2.333,2.333h1.167A2.333,2.333,0,0,0,13.417,35V26.833h1.167V35a2.333,2.333,0,0,0,2.333,2.333h1.167A2.333,2.333,0,0,0,20.417,35V15.55l6.9-6.9A2.333,2.333,0,0,0,27.316,5.35Z" transform="translate(0)" fill="#004b97"/>
</svg>
