<svg xmlns="http://www.w3.org/2000/svg" width="290.565" height="243.984" viewBox="0 0 290.565 243.984">
  <g id="Group_328" data-name="Group 328" transform="translate(-439.333 -905.932)">
    <path id="Path_307" data-name="Path 307" d="M290.565,0c-2.269,5.476-4.744,10.931-7.477,16.356C267.6,47.108,242.664,77.313,211.025,94.03c-33.371,17.624-71.95,19.46-101.248,44.447-28.906,24.657-42.292,62.339-72.445,84.738C28.689,229.639,15.4,236.982,0,243.984V0Z" transform="translate(729.898 1149.915) rotate(180)" fill="#86bef8" opacity="0.05"/>
    <path id="Path_308" data-name="Path 308" d="M217,0C201.28,23.647,181.83,44.715,159.153,59.627,118.037,86.635,69.1,92.142,33.732,129.061,20.213,143.179,9.807,159.813,0,176.849V0Z" transform="translate(729.898 1149.915) rotate(180)" fill="#86bef8" opacity="0.08"/>
  </g>
</svg>
