<svg xmlns="http://www.w3.org/2000/svg" width="14.35" height="22.96" viewBox="0 0 14.35 22.96">
  <path id="Icon_awesome-mobile-alt" data-name="Icon awesome-mobile-alt" d="M12.2,0H2.152A2.153,2.153,0,0,0,0,2.152V20.807A2.153,2.153,0,0,0,2.152,22.96H12.2a2.153,2.153,0,0,0,2.152-2.153V2.152A2.153,2.153,0,0,0,12.2,0ZM7.175,21.525A1.435,1.435,0,1,1,8.61,20.09,1.433,1.433,0,0,1,7.175,21.525ZM12.2,16.682a.54.54,0,0,1-.538.538H2.691a.54.54,0,0,1-.538-.538V2.691a.54.54,0,0,1,.538-.538h8.969a.54.54,0,0,1,.538.538Z" fill="#fff"/>
</svg>
