<svg xmlns="http://www.w3.org/2000/svg" width="1920.5" height="259.49" viewBox="0 0 1920.5 259.49">
  <g id="shapre2" transform="translate(1)">
    <rect id="Rectangle_218" data-name="Rectangle 218" width="1919" height="202" transform="translate(0.5 0.5)" fill="#fff"/>
    <path id="Path_423" data-name="Path 423" d="M1919,259s-463.62.49-957.79.49C492.86,259.49-1,259-1,259V8H563s193.58,140.46,654,178.74c446,37.08,702-44.68,702-44.68Z" fill="#004b97"/>
    <path id="Path_424" data-name="Path 424" d="M1919,251s-463.62-42.51-957.79-42.51C492.86,208.49-1,251-1,251V0H563s193.58,140.46,654,178.74c446,37.08,702-44.68,702-44.68Z" fill="#004b97"/>
    <path id="Path_425" data-name="Path 425" d="M948.13,131.44l-9.2-1.6,1-3.85.24.06c.44-1.44-.46-1.81-.46-1.81s-1.89-.53-2.55-.69-1.15.62-1.15.62l-.22.86.62.16a32.8,32.8,0,0,1-1,4l-2.69-.4,1.64-6.38-1.62-.42-1.61,6.25-2.59-.66,1.62-6.29-1.52-.39L927,127.23l-.79-.2,2.3-9,.92-3.52,19.14,4.35a.42.42,0,0,0,.41-.13.43.43,0,0,0,.09-.42l-11.38-35.5.27.1h0a.13.13,0,0,0,.11.15h0a.15.15,0,0,0,.16-.13L938.6,80l5.2-5h0l-1.32-9.4,2.3-6.34h0V59h0c-.69-.11-1.39-.23-2.08-.36l2-.28a.15.15,0,0,0,.13-.16.16.16,0,0,0-.17-.12l-2.9.39c-3-.58-6-1.3-9-2.13-12.19-5.3-26.47-11.7-37.91-16.85a172.874,172.874,0,0,1-14.59-9.64v-.08a.392.392,0,0,0-.76-.19h0l-1.52.12a.39.39,0,0,0-.77-.1.49.49,0,0,0,0,.12h0l-3,.23a.421.421,0,0,0-.17-.1.4.4,0,1,0,.24.57l2.45,1.12-3.26,11.78a.38.38,0,0,0-.21-.13.45.45,0,0,0-.28,0,.39.39,0,0,0-.24-.19.4.4,0,0,0-.48.28.42.42,0,0,0,0,.31l-.32.23h-.08c-.23,0-.44.12-.38.33-1.73,1.35-49.21,38.41-49.84,38.74l-.09.07a.15.15,0,0,0-.07,0,.24.24,0,0,0-.3.18.209.209,0,0,0,0,.11l-2.34,1.66a.94.94,0,0,0-.44-.13c-.34.06,0,1.15-.86,1.06,0,0-5.38,18.12-3.86,25.94L928,141.06s15.29-2.85,19.89-9.19c.09,0,.25.06.27,0S948.25,131.47,948.13,131.44ZM831,90.85c.51.28,1,.53,1.45.76l-.72,1.29-1.19-.23S830.79,91.79,831,90.85Zm44-46.46a.426.426,0,0,0,.53.26h0v.08c0,.23.15.42.36.36l9,12.91c-.08.27-.28,1-.33,1.31l-.5,1.69h-.2l-.17.54a2.63,2.63,0,0,0-.73,1,.661.661,0,0,0-.13.28h0c-4.44,9.88-11.62,20.35-16.46,26.9-.7-1.1-1.39-2.28-2.05-3.54l10.21-41.8a.37.37,0,0,0,.14.07.38.38,0,0,0,.33-.06Zm1,.57a.06.06,0,0,0-.09.08.2.2,0,0,1-.21-.25s0-.08,0-.09l-.08-.09h.05l.08.12a.18.18,0,0,1,.12,0c.13-.06.21.11.13.27Zm34.49,50.95.48.12.68,1.15-.08.35.38.1.25.43-.81,3.16-4-1.29-1.18,1.46-.73-.18-.15.73,2.42.59a35.81,35.81,0,0,1-15.76,3.16c-6.39-.23-14.81-2.57-22.14-11.28,7.9-11.64,13.59-28.56,14.24-30.54a.9.9,0,0,0,.56-.62,1.089,1.089,0,0,0,0-.44,3,3,0,0,0-.17-1l.13-.67-.14-.11.44-1.41a.14.14,0,0,0,.1-.1,7.756,7.756,0,0,1,.31-1l25.62,36.83v.21c-.5-.07-.5.35-.5.35ZM912.91,106l-1.17,4.54-3.36-.87,1.17-4.53Zm-39.69,5.59.93.26a.681.681,0,0,0,.4.29l-.21.82a4.458,4.458,0,0,1-1.26-1Zm-2.43-1.18.1-.38-1.21-.31v.32l-1.76-.46.18-.72-1.34-.35-.29.41-5.69-2-.81.13-.24.33-.52-.17.6-2.43a64.39,64.39,0,0,0,15.43,4.91l-.51,2a.63.63,0,0,0-.47,0l-.92-.25.1-.25ZM853.33,105a.55.55,0,0,0-.31-.35l.66-2.59a.66.66,0,0,0,.4,0c.52.28,1.48.78,2.76,1.4l-.75,2.71C855.05,105.7,854.11,105.32,853.33,105Zm-8.53-9.18,3.65-.45-1.79,3.53c-.89-.4-1.71-.79-2.4-1.12ZM883.48,63.9a.839.839,0,0,0,.31,0c-.8,2.42-6.41,18.91-14.14,30.31a42.366,42.366,0,0,1-3.16-4.32c4.78-6.48,11.88-16.81,16.35-26.62a.9.9,0,0,0,.64.63ZM869.56,94.37c-2.95,4.34-6.21,7.91-9.62,9.68l2-8.2c.77-1,2.39-3,4.46-5.81a43.869,43.869,0,0,0,3.16,4.33Zm-7.5,1,2.2-9c.64,1.21,1.31,2.37,2,3.46-1.84,2.53-3.34,4.45-4.2,5.52Zm-2.19,9c3.49-1.74,6.82-5.37,9.83-9.78a33.458,33.458,0,0,0,7.88,6.95,28,28,0,0,0,8,3.44,30,30,0,0,0,6.33.91,36,36,0,0,0,15.85-3.19l-2.77,9.1-.79-.21-1.63-2.82-2.71,1.56-1.5,5.84-.13-.09-5.77-1.48a1.09,1.09,0,0,0-.08.15l-.65-.29a.19.19,0,0,0,.07-.12c.05-.18-.12-.38-.39-.48l.2-.76a.144.144,0,1,0-.28-.07l-.2.77c-.24,0-.44.09-.48.25a.35.35,0,0,0,0,.17l-.88-.12-.72-.18h0a92.772,92.772,0,0,1-13.12-4.23.19.19,0,0,0,.08-.1c0-.14-.14-.31-.41-.4l.15-.58a.144.144,0,0,0-.28-.07l-.15.59c-.23,0-.42,0-.46.16a.23.23,0,0,0,0,.11,65.5,65.5,0,0,1-15.07-4.87ZM875,111.7l.5-2h0a95.478,95.478,0,0,0,13.5,4.43l-.28,1.08.38.1-.3,1.16a45.73,45.73,0,0,1-13.53-4.38h0A.736.736,0,0,0,875,111.7Zm16.95,5.43-1.14-.29.25-1,.69.18.32-1.26.25.1a4.249,4.249,0,0,0-.4,2.27Zm15-7.72-.72-.16,1.34-4.66.69.18Zm-50.05-6.24c-1.21-.59-2.13-1.06-2.66-1.35h0a.546.546,0,0,0-.39-.48l.19-.77a.139.139,0,1,0-.27-.07l-.2.78a.53.53,0,0,0-.42.14,49.479,49.479,0,0,1-6-2.3l2-3.84L859.44,94ZM844.2,98c.68.33,1.49.71,2.37,1.1l-1.2,2.36-1.88-.83Zm2.89,1.33a48.837,48.837,0,0,0,6,2.32.54.54,0,0,0,.3.34l-.66,2.59a.76.76,0,0,0-.34,0l-6.52-2.91Zm27.74,12.94a.87.87,0,0,0,.23,0,45.749,45.749,0,0,0,13.7,4.47l-.33,1.29-8.37-2.81-4.26-1.61a5.588,5.588,0,0,1-1.2-.43ZM859.61,93.38l-10.16,1.25,6.61-13,6.13,1.88.16-.55-6-1.85L871,52.22Zm-3.84-12.45-5.24-1.6-.17.54,5.15,1.58-6.74,13.27-3.81.47L846,91.32l-2.38-.66a10.06,10.06,0,0,0-2.2-.3l30.21-40.69Zm-21.83,14,.93-2.15.55.23a11.385,11.385,0,0,0-1.48,1.89Zm9.49,5.89,1.84.81-.4.79-1.66-.8Zm2.36,1,6.41,2.86v.07a.546.546,0,0,0,.39.48l-.14.56c-2.36-1-4.71-2.08-7-3.17Zm7.05,3.47a.51.51,0,0,0,.42-.14c.79.36,1.73.74,2.77,1.13l-.25.93c-1-.43-2.07-.87-3.09-1.31Zm6,3.18.26-1.09.43.14-.69,1Zm76.9-26.62,2-8,.55.11-2.26,8Zm3.32-8h-.25l.51-2ZM939,70.93c-.21.24,0,.34,0,.34l-.67,2.38-.56-.11,2.69-11-1,8.37a.34.34,0,0,0-.46.02Zm-1.68,8.77,1.52-4.19-.54,4.39L937,81.22ZM938,77l.75-3,.29.06v.15Zm3-16.9.27-1.1.9,6.42-2.76,7.6Zm-.28-1.24-3.54,14.53h-.1l.41-14.81Zm-3.69,14.8h.08l-1.95,8-.72-.24Zm-2.68,8,.79.27a.27.27,0,0,0,.2.19h0a.27.27,0,0,0,.23,0l.31.11-.42,1.51-4.27,10.52Zm.41,4.5-5.69,20.21-.87-.28,2.48-9.87ZM928,106l-.43-.14-.65-.17L930,98.17Zm-1.31,3.74,1.1.29-.78,3-1.11-.25Zm0,4.57-1.1-.29.1-.37,1.11.25Zm10.06-31.76L948,117.89l-18.38-4.18,1.28-4.89,1.47.38-.4-1.87-1.41-.45,6.1-24.41h0a.428.428,0,0,0,.06.12Zm1.28,0-.43-.14v-.13a.43.43,0,0,0-.54-.28.51.51,0,0,0-.21.15h0l.11-.43,1.44-1.4Zm1.31-8.29.05-.15,4,.83-4.75,4.6Zm4.22.41-4.07-.84L942.34,66ZM941.6,59l2.89.25-2.06,5.67Zm-.67-.41v.06l-3.46-.3-2.83-1.23q3.1.8,6.29,1.43Zm-10.35-2.91a162.9,162.9,0,0,1-33.4-14.85c10.32,4.61,22.56,10.08,33.4,14.81ZM879.82,30a.36.36,0,0,0,.23,0c1.17.89,5.71,4.24,12.46,8.39l-14.87-6.75.41-1.7,1.53-.12a.36.36,0,0,0,.24.18Zm-5.32.2,2.64-.2-.34,1.25Zm20,9.4c1.56.93,3.22,1.9,5,2.87a158.631,158.631,0,0,0,33.15,14.08l4.59,2-.4,15-2.72,8.12-3.67,14.55-3.7,9.11c.69-2.5,4.45-16.12,4.46-16.36s-.23-.14-.23-.14c-.47,1.06-4.37,15.49-4.37,15.49l-3.71-1,.8-3.14-.41-.11-.8,3.13-1.75-.45-.25,1-.55-.14-.14.55-.73-.18.61-2.37.43.11.1-.37s-.62-.18-1.4-.36-1,.12-1,.12l-2.9-.74c-.15-.45-.49-.11-.49-.11l-.66-.17-.44,1.74-.61-.15.79-3.07.58-.41.36.1.07-.24,1.28-.7c.1-.33-.31-.32-.31-.32l.46-1.78c.09-.35-.53-.52-.53-.52l-3.67-.94a.46.46,0,0,0-.48.2l-.32,1.25L876,45c.2-.17,0-.43-.2-.48h-.12a.381.381,0,0,0,.06-.13.4.4,0,0,0-.6-.43.38.38,0,0,0-.27-.25.43.43,0,0,0-.16,0l2.88-11.77c3.63,1.63,9.7,4.4,16.95,7.66Zm-22.68,4.32h.09l.38-.3.08.07L872,44a.16.16,0,0,1,0,.12.211.211,0,0,1-.35.12h0a.07.07,0,0,0,0-.1.06.06,0,0,0-.07,0,.21.21,0,0,1,.28-.22Zm-.28.36c.16.2.43,0,.5-.16a.43.43,0,0,1,0-.12l.4-.23h0a.38.38,0,0,0,.28,0,.41.41,0,0,0,.25.19.36.36,0,0,0,.23,0L872.15,48,840.71,90.39a8,8,0,0,0-5.19,2.48l-.59-.25.63-1.46c0-.74-2.2-1.15-2.2-1.15l-.84,1.48c-.47-.24-1-.5-1.48-.79a12.487,12.487,0,0,0,.25-1.52c.05-1.09-1.3-.4-1.3-.4l-.39,1.1a29.131,29.131,0,0,1-7.91-6.63h0a.18.18,0,0,0,0-.16h.08c.54-.34,46.98-36.59,49.81-38.81ZM821.29,83.35a.389.389,0,0,0,.11.06.26.26,0,0,0,.21,0A29.12,29.12,0,0,0,829.55,90l-1,2.85a66.945,66.945,0,0,1-8.13-5.22L820.8,86s-1.06-.7-1.78-1.06Zm-.94,4.53a71.394,71.394,0,0,0,8.12,5.19l-.2.55c-2.76-1.63-5.46-3.33-8.07-5.1Z" fill="#004b97"/>
  </g>
</svg>
